#!OML:ASF E:\motion texture\Top Level 1\Subject 1\Session 1\male.ASF
:FULLY-SPECIFIED
:DEGREES
853
root -49.4635 17.365 4.49213 2.43537 -88.3838 -0.028954
lowerback 1.60297 -1.36278 1.38716
upperback 4.68451 -1.92948 0.247329
thorax 3.88628 -0.955558 -0.558409
lowerneck -18.6337 -0.643974 -4.75492
upperneck 28.4362 -1.50695 5.3755
head 12.6163 -0.624558 2.60003
rclavicle 1.06847e-015 -7.45443e-015
rhumerus -34.1013 -20.7854 -64.9485
rradius 38.9919
rwrist 7.69837
rhand -15.762 -29.4339
rfingers 7.12502
rthumb 10.4297 -59.1552
lclavicle 1.06847e-015 -7.45443e-015
lhumerus -28.2892 24.961 68.7414
lradius 22.8555
lwrist -35.7848
lhand -7.36122 22.8499
lfingers 7.12502
lthumb 18.5234 51.988
rfemur -29.8125 -8.15222 13.9572
rtibia 26.5037
rfoot -3.43869 -25.3737
rtoes 7.71586
lfemur -8.08201 -2.23207 -16.3979
ltibia 46.0598
lfoot -14.7601 -7.62674
ltoes -29.8991
854
root -49.3153 17.3526 4.51783 -11.8811 -88.0094 14.2315
lowerback 1.6126 -1.44693 0.779669
upperback 4.55994 -2.02578 0.0993283
thorax 3.7635 -1.02129 -0.370368
lowerneck -18.6337 -0.643974 -4.75492
upperneck 28.4362 -1.50695 5.3755
head 12.6163 -0.624558 2.60003
rclavicle -1.28465e-014 7.35503e-015
rhumerus -33.9571 -20.5619 -65.2833
rradius 39.0578
rwrist 7.99833
rhand -15.9201 -28.0638
rfingers 7.12502
rthumb 10.2772 -57.7927
lclavicle -1.28465e-014 7.35503e-015
lhumerus -27.6579 23.7307 69.5928
lradius 23.7497
lwrist -34.679
lhand -8.04141 22.7521
lfingers 7.12502
lthumb 17.869 51.9512
rfemur -29.8125 -8.15222 13.9572
rtibia 26.5037
rfoot -3.43869 -25.3737
rtoes 7.71586
lfemur -7.82741 -2.44808 -17.1354
ltibia 44.8628
lfoot -15.7612 -7.31097
ltoes -28.6961
855
root -49.1587 17.3465 4.53866 -16.1101 -87.6321 18.5024
lowerback 1.70972 -1.47956 0.286811
upperback 4.37757 -2.0569 0.0500887
thorax 3.53357 -1.05149 -0.139785
lowerneck -18.6337 -0.643974 -4.75492
upperneck 28.4362 -1.50695 5.3755
head 12.6163 -0.624558 2.60003
rclavicle 2.12948e-014 -7.25564e-015
rhumerus -33.8014 -20.2403 -65.6309
rradius 39.0956
rwrist 8.15082
rhand -15.6899 -27.7522
rfingers 7.12502
rthumb 10.4993 -57.47
lclavicle 2.12948e-014 -7.25564e-015
lhumerus -27.035 22.313 70.5344
lradius 24.7563
lwrist -33.397
lhand -8.45485 22.8191
lfingers 7.12502
lthumb 17.4711 52.054
rfemur -29.8125 -8.15222 13.9572
rtibia 26.5037
rfoot -3.43869 -25.3737
rtoes 7.71586
lfemur -7.93411 -2.44955 -17.5616
ltibia 44.1015
lfoot -16.6076 -6.69743
ltoes -28.0141
856
root -49.0096 17.3452 4.56578 -20.3784 -87.1145 22.7105
lowerback 1.58447 -1.60336 -0.157341
upperback 4.51282 -2.2183 -0.118958
thorax 3.75435 -1.14485 -0.0748645
lowerneck -11.1285 5.06233 -3.18348
upperneck 42.0474 8.87123 -6.39003
head 17.6806 1.45073 -1.08129
rclavicle -2.1506e-014 -1.14798e-014
rhumerus -33.1073 -20.1711 -66.3066
rradius 39.0136
rwrist 8.4772
rhand -15.6925 -27.1793
rfingers 7.12502
rthumb 10.4968 -56.8972
lclavicle -2.1506e-014 -1.14798e-014
lhumerus -26.1266 21.3235 71.3595
lradius 25.9418
lwrist -32.2186
lhand -9.05814 22.845
lfingers 7.12502
lthumb 16.8905 52.1305
rfemur -29.8125 -8.15222 13.9572
rtibia 26.5037
rfoot -3.43869 -25.3737
rtoes 7.71586
lfemur -7.90086 -2.56619 -18.224
ltibia 43.3557
lfoot -17.2173 -6.13617
ltoes -26.0615
857
root -48.8465 17.3467 4.5824 -24.2177 -86.7533 26.6085
lowerback 1.60158 -1.60878 -0.749756
upperback 4.39901 -2.2164 -0.172087
thorax 3.647 -1.16159 0.204145
lowerneck -11.0344 5.11062 -3.38233
upperneck 42.1472 8.90169 -6.15538
head 17.6821 1.45843 -0.938096
rclavicle 2.3233e-014 -7.15625e-015
rhumerus -32.7911 -19.9621 -66.6491
rradius 38.9287
rwrist 8.74293
rhand -15.6786 -26.891
rfingers 7.12502
rthumb 10.5102 -56.6082
lclavicle 2.3233e-014 -7.15625e-015
lhumerus -25.5919 20.1967 72.233
lradius 27.2072
lwrist -31.0291
lhand -9.43237 22.9136
lfingers 7.12502
lthumb 16.5302 52.2295
rfemur -29.8125 -8.15222 13.9572
rtibia 26.5037
rfoot -3.43869 -25.3737
rtoes 7.71586
lfemur -8.18734 -2.48233 -18.7334
ltibia 42.7445
lfoot -17.7057 -5.52502
ltoes -25.0039
858
root -48.7005 17.3543 4.61111 -25.7561 -86.2129 28.0777
lowerback 1.55828 -1.68185 -1.17841
upperback 4.41211 -2.30671 -0.311974
thorax 3.69776 -1.21888 0.296125
lowerneck -11.0492 5.18308 -3.27399
upperneck 41.9318 9.05014 -6.27244
head 17.5811 1.5395 -0.974931
rclavicle 1.89839e-014 -1.2424e-016
rhumerus -32.4816 -19.9888 -67.1008
rradius 38.9283
rwrist 9.15757
rhand -15.0744 -26.8767
rfingers 7.12502
rthumb 11.093 -56.5635
lclavicle 1.89839e-014 -1.2424e-016
lhumerus -25.0502 18.8747 73.0141
lradius 28.653
lwrist -29.6273
lhand -9.85082 23.0401
lfingers 7.12502
lthumb 16.1273 52.3891
rfemur -29.8125 -8.15222 13.9572
rtibia 26.5037
rfoot -3.43869 -25.3737
rtoes 7.71586
lfemur -8.1591 -2.63178 -19.3839
ltibia 41.9629
lfoot -18.0925 -5.0135
ltoes -23.8593
859
root -48.5437 17.3633 4.63548 -26.9054 -85.7904 29.2266
lowerback 1.55242 -1.68999 -1.56327
upperback 4.39733 -2.31078 -0.450447
thorax 3.69601 -1.23134 0.368462
lowerneck -11.1468 5.25596 -3.1993
upperneck 41.8962 9.15001 -6.21221
head 17.587 1.60548 -0.937405
rclavicle 1.47299e-014 4.96806e-015
rhumerus -32.0075 -19.8083 -67.6443
rradius 38.5724
rwrist 9.35862
rhand -15.1287 -26.4252
rfingers 7.12502
rthumb 11.0406 -56.1148
lclavicle 1.47299e-014 4.96806e-015
lhumerus -24.4494 17.797 73.7078
lradius 29.9485
lwrist -28.4506
lhand -10.3759 22.849
lfingers 7.12502
lthumb 15.6216 52.2382
rfemur -29.8125 -8.15222 13.9572
rtibia 26.5037
rfoot -3.43869 -25.3737
rtoes 7.71586
lfemur -8.27073 -2.73829 -19.8839
ltibia 41.1861
lfoot -18.363 -4.62372
ltoes -22.5823
860
root -48.3938 17.3748 4.65753 -26.5501 -85.5434 28.8937
lowerback 1.46097 -1.65874 -1.83136
upperback 4.38497 -2.26339 -0.484738
thorax 3.74357 -1.21602 0.48073
lowerneck -11.2245 5.23351 -3.39483
upperneck 41.6728 9.18185 -6.15985
head 17.4616 1.61535 -0.86058
rclavicle 6.96989e-015 -3.77691e-015
rhumerus -31.6286 -19.8062 -68.0564
rradius 38.3824
rwrist 9.73393
rhand -14.6424 -26.6247
rfingers 7.12502
rthumb 11.5097 -56.2887
lclavicle 6.96989e-015 -3.77691e-015
lhumerus -23.9633 16.6979 74.4523
lradius 31.408
lwrist -27.238
lhand -10.8067 22.8088
lfingers 7.12502
lthumb 15.2067 52.2299
rfemur -29.8125 -8.15222 13.9572
rtibia 26.5037
rfoot -3.43869 -25.3737
rtoes 7.71586
lfemur -8.33758 -2.80467 -20.1276
ltibia 40.2854
lfoot -18.5586 -4.35957
ltoes -21.3947
861
root -48.2463 17.3888 4.68556 -25.0501 -85.3042 27.3699
lowerback 1.40923 -1.61538 -1.89435
upperback 4.47444 -2.20317 -0.553659
thorax 3.86428 -1.18918 0.4424
lowerneck -11.7298 5.27443 -3.3538
upperneck 41.6684 9.33947 -6.18181
head 17.6027 1.68001 -0.834856
rclavicle 4.65902e-015 7.87684e-015
rhumerus -30.9856 -19.9158 -68.5833
rradius 37.9219
rwrist 10.1615
rhand -14.6183 -26.2036
rfingers 7.12502
rthumb 11.5329 -55.8663
lclavicle 4.65902e-015 7.87684e-015
lhumerus -23.2217 15.5422 75.1608
lradius 32.7091
lwrist -26.0326
lhand -11.339 22.6799
lfingers 7.12502
lthumb 14.6939 52.1392
rfemur -29.8125 -8.15222 13.9572
rtibia 26.5037
rfoot -3.43869 -25.3737
rtoes 7.71586
lfemur -8.29441 -3.01079 -20.3084
ltibia 39.3093
lfoot -18.6903 -4.19089
ltoes -20.0712
862
root -48.0961 17.4052 4.71358 -23.8161 -85.1518 26.1591
lowerback 1.23795 -1.53492 -1.89404
upperback 4.26661 -2.08509 -0.610146
thorax 3.73982 -1.12386 0.386028
lowerneck -10.9451 5.34964 -3.41447
upperneck 41.5041 9.33307 -6.0896
head 17.2871 1.70909 -0.797398
rclavicle -7.91411e-015 -4.02539e-015
rhumerus -31.1871 -19.6468 -68.8746
rradius 37.783
rwrist 10.4962
rhand -14.3177 -26.3411
rfingers 7.12502
rthumb 11.8227 -55.9874
lclavicle -7.91411e-015 -4.02539e-015
lhumerus -23.326 14.1182 75.7276
lradius 34.3709
lwrist -24.6883
lhand -11.7091 22.6457
lfingers 7.12502
lthumb 14.3373 52.1306
rfemur -29.8125 -8.15222 13.9572
rtibia 26.5037
rfoot -3.43869 -25.3737
rtoes 7.71586
lfemur -8.33215 -3.2507 -20.4593
ltibia 38.3503
lfoot -18.7715 -3.96173
ltoes -18.6892
